<mxfile host="app.diagrams.net" modified="2023-12-08T20:48:28.320Z" agent="Mozilla/5.0 (Windows NT 10.0; Win64; x64) AppleWebKit/537.36 (KHTML, like Gecko) Chrome/119.0.0.0 Safari/537.36" etag="VqWke0AAY5YWi2x3rzNd" version="22.1.7" type="device">
  <diagram name="Page-1" id="4FQJ48tAmCIUIueCZiKO">
    <mxGraphModel dx="1114" dy="602" grid="1" gridSize="10" guides="1" tooltips="1" connect="1" arrows="1" fold="1" page="1" pageScale="1" pageWidth="850" pageHeight="1100" math="0" shadow="0">
      <root>
        <mxCell id="0" />
        <mxCell id="1" parent="0" />
        <mxCell id="p5kdBDClQZR-n7pu-Rp3-49" value="" style="rounded=0;whiteSpace=wrap;html=1;fillColor=#E6E6E6;" vertex="1" parent="1">
          <mxGeometry x="280" y="40" width="160" height="380" as="geometry" />
        </mxCell>
        <mxCell id="p5kdBDClQZR-n7pu-Rp3-50" value="" style="rounded=0;whiteSpace=wrap;html=1;fillColor=none;" vertex="1" parent="1">
          <mxGeometry x="40" y="40" width="240" height="380" as="geometry" />
        </mxCell>
        <mxCell id="p5kdBDClQZR-n7pu-Rp3-51" value="" style="endArrow=none;html=1;rounded=0;strokeWidth=1;" edge="1" parent="1">
          <mxGeometry width="50" height="50" relative="1" as="geometry">
            <mxPoint x="250" y="70" as="sourcePoint" />
            <mxPoint x="270" y="50" as="targetPoint" />
          </mxGeometry>
        </mxCell>
        <mxCell id="p5kdBDClQZR-n7pu-Rp3-52" value="" style="endArrow=none;html=1;rounded=0;strokeWidth=1;" edge="1" parent="1">
          <mxGeometry width="50" height="50" relative="1" as="geometry">
            <mxPoint x="270" y="70" as="sourcePoint" />
            <mxPoint x="250" y="50" as="targetPoint" />
          </mxGeometry>
        </mxCell>
        <mxCell id="p5kdBDClQZR-n7pu-Rp3-53" value="Found a total of 10 routes." style="text;html=1;strokeColor=none;fillColor=none;align=left;verticalAlign=middle;whiteSpace=wrap;rounded=0;" vertex="1" parent="1">
          <mxGeometry x="50" y="80" width="220" height="40" as="geometry" />
        </mxCell>
        <mxCell id="p5kdBDClQZR-n7pu-Rp3-54" value="" style="dashed=0;labelPosition=right;align=left;shape=mxgraph.gmdl.checkbox;strokeColor=none;fillColor=#676767;strokeWidth=2;aspect=fixed;sketch=0;html=1;" vertex="1" parent="1">
          <mxGeometry x="50" y="122" width="16" height="16" as="geometry" />
        </mxCell>
        <mxCell id="p5kdBDClQZR-n7pu-Rp3-55" value="castle" style="text;html=1;strokeColor=none;fillColor=none;align=left;verticalAlign=middle;whiteSpace=wrap;rounded=0;spacingLeft=2;" vertex="1" parent="1">
          <mxGeometry x="66" y="120" width="44" height="20" as="geometry" />
        </mxCell>
        <mxCell id="p5kdBDClQZR-n7pu-Rp3-56" value="" style="dashed=0;labelPosition=right;align=left;shape=mxgraph.gmdl.checkbox;strokeColor=none;fillColor=#676767;strokeWidth=2;aspect=fixed;sketch=0;html=1;" vertex="1" parent="1">
          <mxGeometry x="120" y="122" width="16" height="16" as="geometry" />
        </mxCell>
        <mxCell id="p5kdBDClQZR-n7pu-Rp3-57" value="museum" style="text;html=1;strokeColor=none;fillColor=none;align=left;verticalAlign=middle;whiteSpace=wrap;rounded=0;spacingLeft=2;" vertex="1" parent="1">
          <mxGeometry x="136" y="120" width="54" height="20" as="geometry" />
        </mxCell>
        <mxCell id="p5kdBDClQZR-n7pu-Rp3-58" value="Back" style="text;html=1;strokeColor=none;fillColor=none;align=left;verticalAlign=middle;whiteSpace=wrap;rounded=0;spacingLeft=2;" vertex="1" parent="1">
          <mxGeometry x="70" y="50" width="60" height="20" as="geometry" />
        </mxCell>
        <mxCell id="p5kdBDClQZR-n7pu-Rp3-59" value="" style="shape=image;html=1;verticalAlign=top;verticalLabelPosition=bottom;labelBackgroundColor=#ffffff;imageAspect=0;aspect=fixed;image=https://cdn4.iconfinder.com/data/icons/ionicons/512/icon-arrow-left-a-128.png;fontColor=#808080;imageBackground=none;" vertex="1" parent="1">
          <mxGeometry x="50" y="50" width="20" height="20" as="geometry" />
        </mxCell>
        <mxCell id="p5kdBDClQZR-n7pu-Rp3-60" value="" style="ellipse;whiteSpace=wrap;html=1;aspect=fixed;fillColor=#CCCCCC;" vertex="1" parent="1">
          <mxGeometry x="300" y="330" width="20" height="20" as="geometry" />
        </mxCell>
        <mxCell id="p5kdBDClQZR-n7pu-Rp3-61" value="" style="ellipse;whiteSpace=wrap;html=1;aspect=fixed;fillColor=#333333;" vertex="1" parent="1">
          <mxGeometry x="400" y="230" width="20" height="20" as="geometry" />
        </mxCell>
        <mxCell id="p5kdBDClQZR-n7pu-Rp3-62" value="" style="endArrow=none;html=1;rounded=0;" edge="1" parent="1" source="p5kdBDClQZR-n7pu-Rp3-60" target="p5kdBDClQZR-n7pu-Rp3-63">
          <mxGeometry width="50" height="50" relative="1" as="geometry">
            <mxPoint x="100" y="420" as="sourcePoint" />
            <mxPoint x="318.091303409029" y="299.81615389642184" as="targetPoint" />
          </mxGeometry>
        </mxCell>
        <mxCell id="p5kdBDClQZR-n7pu-Rp3-63" value="" style="ellipse;whiteSpace=wrap;html=1;aspect=fixed;fillColor=#808080;" vertex="1" parent="1">
          <mxGeometry x="360" y="300" width="20" height="20" as="geometry" />
        </mxCell>
        <mxCell id="p5kdBDClQZR-n7pu-Rp3-64" value="" style="shape=image;html=1;verticalAlign=top;verticalLabelPosition=bottom;labelBackgroundColor=#ffffff;imageAspect=0;aspect=fixed;image=https://cdn3.iconfinder.com/data/icons/arrow-outline-8/32/left-128.png" vertex="1" parent="1">
          <mxGeometry x="50" y="160" width="20" height="20" as="geometry" />
        </mxCell>
        <mxCell id="p5kdBDClQZR-n7pu-Rp3-65" value="" style="shape=image;html=1;verticalAlign=top;verticalLabelPosition=bottom;labelBackgroundColor=#ffffff;imageAspect=0;aspect=fixed;image=https://cdn3.iconfinder.com/data/icons/arrow-outline-8/32/right-128.png" vertex="1" parent="1">
          <mxGeometry x="250" y="160" width="20" height="20" as="geometry" />
        </mxCell>
        <mxCell id="p5kdBDClQZR-n7pu-Rp3-66" value="2" style="text;html=1;strokeColor=none;fillColor=none;align=center;verticalAlign=middle;whiteSpace=wrap;rounded=0;" vertex="1" parent="1">
          <mxGeometry x="100" y="160" width="30" height="20" as="geometry" />
        </mxCell>
        <mxCell id="p5kdBDClQZR-n7pu-Rp3-67" value="3" style="text;html=1;strokeColor=none;fillColor=none;align=center;verticalAlign=middle;whiteSpace=wrap;rounded=0;" vertex="1" parent="1">
          <mxGeometry x="130" y="160" width="30" height="20" as="geometry" />
        </mxCell>
        <mxCell id="p5kdBDClQZR-n7pu-Rp3-68" value="10" style="text;html=1;strokeColor=none;fillColor=none;align=center;verticalAlign=middle;whiteSpace=wrap;rounded=0;" vertex="1" parent="1">
          <mxGeometry x="220" y="160" width="30" height="20" as="geometry" />
        </mxCell>
        <mxCell id="p5kdBDClQZR-n7pu-Rp3-69" value="4" style="text;html=1;strokeColor=none;fillColor=none;align=center;verticalAlign=middle;whiteSpace=wrap;rounded=0;" vertex="1" parent="1">
          <mxGeometry x="160" y="160" width="30" height="20" as="geometry" />
        </mxCell>
        <mxCell id="p5kdBDClQZR-n7pu-Rp3-70" value="..." style="text;html=1;strokeColor=none;fillColor=none;align=center;verticalAlign=middle;whiteSpace=wrap;rounded=0;" vertex="1" parent="1">
          <mxGeometry x="190" y="160" width="30" height="20" as="geometry" />
        </mxCell>
        <mxCell id="p5kdBDClQZR-n7pu-Rp3-71" value="" style="ellipse;whiteSpace=wrap;html=1;aspect=fixed;fillColor=#f5f5f5;fontColor=#333333;strokeColor=#666666;" vertex="1" parent="1">
          <mxGeometry x="75" y="160" width="20" height="20" as="geometry" />
        </mxCell>
        <mxCell id="p5kdBDClQZR-n7pu-Rp3-72" value="1" style="text;html=1;strokeColor=none;fillColor=none;align=center;verticalAlign=middle;whiteSpace=wrap;rounded=0;fontStyle=1" vertex="1" parent="1">
          <mxGeometry x="70" y="160" width="30" height="20" as="geometry" />
        </mxCell>
        <mxCell id="p5kdBDClQZR-n7pu-Rp3-73" value="" style="ellipse;whiteSpace=wrap;html=1;aspect=fixed;fillColor=#808080;" vertex="1" parent="1">
          <mxGeometry x="350" y="240" width="20" height="20" as="geometry" />
        </mxCell>
        <mxCell id="p5kdBDClQZR-n7pu-Rp3-74" value="" style="endArrow=none;html=1;rounded=0;" edge="1" parent="1" source="p5kdBDClQZR-n7pu-Rp3-73" target="p5kdBDClQZR-n7pu-Rp3-63">
          <mxGeometry width="50" height="50" relative="1" as="geometry">
            <mxPoint y="240" as="sourcePoint" />
            <mxPoint x="50" y="190" as="targetPoint" />
          </mxGeometry>
        </mxCell>
        <mxCell id="p5kdBDClQZR-n7pu-Rp3-75" value="" style="endArrow=none;html=1;rounded=0;" edge="1" parent="1" source="p5kdBDClQZR-n7pu-Rp3-73" target="p5kdBDClQZR-n7pu-Rp3-61">
          <mxGeometry width="50" height="50" relative="1" as="geometry">
            <mxPoint y="240" as="sourcePoint" />
            <mxPoint x="50" y="190" as="targetPoint" />
          </mxGeometry>
        </mxCell>
        <mxCell id="p5kdBDClQZR-n7pu-Rp3-76" value="" style="endArrow=none;html=1;rounded=0;" edge="1" parent="1">
          <mxGeometry width="50" height="50" relative="1" as="geometry">
            <mxPoint x="270" y="280" as="sourcePoint" />
            <mxPoint x="70" y="280" as="targetPoint" />
          </mxGeometry>
        </mxCell>
        <mxCell id="p5kdBDClQZR-n7pu-Rp3-77" value="Starting point" style="text;html=1;strokeColor=none;fillColor=none;align=left;verticalAlign=middle;whiteSpace=wrap;rounded=0;fontColor=#000000;spacingLeft=2;" vertex="1" parent="1">
          <mxGeometry x="70" y="260" width="200" height="20" as="geometry" />
        </mxCell>
        <mxCell id="p5kdBDClQZR-n7pu-Rp3-78" value="" style="ellipse;whiteSpace=wrap;html=1;aspect=fixed;fillColor=#CCCCCC;" vertex="1" parent="1">
          <mxGeometry x="50" y="260" width="20" height="20" as="geometry" />
        </mxCell>
        <mxCell id="p5kdBDClQZR-n7pu-Rp3-79" value="" style="endArrow=none;html=1;rounded=0;" edge="1" parent="1">
          <mxGeometry width="50" height="50" relative="1" as="geometry">
            <mxPoint x="270" y="320" as="sourcePoint" />
            <mxPoint x="70" y="320" as="targetPoint" />
          </mxGeometry>
        </mxCell>
        <mxCell id="p5kdBDClQZR-n7pu-Rp3-80" value="Museum 1" style="text;html=1;strokeColor=none;fillColor=none;align=left;verticalAlign=middle;whiteSpace=wrap;rounded=0;fontColor=#000000;spacingLeft=2;" vertex="1" parent="1">
          <mxGeometry x="70" y="300" width="200" height="20" as="geometry" />
        </mxCell>
        <mxCell id="p5kdBDClQZR-n7pu-Rp3-81" value="" style="ellipse;whiteSpace=wrap;html=1;aspect=fixed;fillColor=#808080;" vertex="1" parent="1">
          <mxGeometry x="50" y="300" width="20" height="20" as="geometry" />
        </mxCell>
        <mxCell id="p5kdBDClQZR-n7pu-Rp3-82" value="" style="endArrow=none;html=1;rounded=0;" edge="1" parent="1">
          <mxGeometry width="50" height="50" relative="1" as="geometry">
            <mxPoint x="270" y="360" as="sourcePoint" />
            <mxPoint x="70" y="360" as="targetPoint" />
          </mxGeometry>
        </mxCell>
        <mxCell id="p5kdBDClQZR-n7pu-Rp3-83" value="Castle 2" style="text;html=1;strokeColor=none;fillColor=none;align=left;verticalAlign=middle;whiteSpace=wrap;rounded=0;fontColor=#000000;spacingLeft=2;" vertex="1" parent="1">
          <mxGeometry x="70" y="340" width="200" height="20" as="geometry" />
        </mxCell>
        <mxCell id="p5kdBDClQZR-n7pu-Rp3-84" value="" style="ellipse;whiteSpace=wrap;html=1;aspect=fixed;fillColor=#808080;" vertex="1" parent="1">
          <mxGeometry x="50" y="340" width="20" height="20" as="geometry" />
        </mxCell>
        <mxCell id="p5kdBDClQZR-n7pu-Rp3-85" value="" style="endArrow=none;html=1;rounded=0;" edge="1" parent="1">
          <mxGeometry width="50" height="50" relative="1" as="geometry">
            <mxPoint x="270" y="400" as="sourcePoint" />
            <mxPoint x="70" y="400" as="targetPoint" />
          </mxGeometry>
        </mxCell>
        <mxCell id="p5kdBDClQZR-n7pu-Rp3-86" value="Destination" style="text;html=1;strokeColor=none;fillColor=none;align=left;verticalAlign=middle;whiteSpace=wrap;rounded=0;fontColor=#000000;spacingLeft=2;" vertex="1" parent="1">
          <mxGeometry x="70" y="380" width="200" height="20" as="geometry" />
        </mxCell>
        <mxCell id="p5kdBDClQZR-n7pu-Rp3-87" value="" style="ellipse;whiteSpace=wrap;html=1;aspect=fixed;fillColor=#000000;" vertex="1" parent="1">
          <mxGeometry x="50" y="380" width="20" height="20" as="geometry" />
        </mxCell>
        <mxCell id="p5kdBDClQZR-n7pu-Rp3-88" value="Walking distance: 3.0 km" style="text;html=1;strokeColor=none;fillColor=none;align=left;verticalAlign=middle;whiteSpace=wrap;rounded=0;" vertex="1" parent="1">
          <mxGeometry x="50" y="220" width="220" height="40" as="geometry" />
        </mxCell>
        <mxCell id="p5kdBDClQZR-n7pu-Rp3-89" value="Not in your Favorites." style="rounded=0;whiteSpace=wrap;html=1;fillColor=#f5f5f5;strokeColor=#666666;align=left;fontColor=#333333;spacingLeft=2;" vertex="1" parent="1">
          <mxGeometry x="50" y="200" width="220" height="20" as="geometry" />
        </mxCell>
        <mxCell id="p5kdBDClQZR-n7pu-Rp3-90" value="" style="shape=image;html=1;verticalAlign=top;verticalLabelPosition=bottom;labelBackgroundColor=#ffffff;imageAspect=0;aspect=fixed;image=https://cdn1.iconfinder.com/data/icons/ionicons-outline-vol-2/512/menu-outline-128.png" vertex="1" parent="1">
          <mxGeometry x="250" y="200" width="20" height="20" as="geometry" />
        </mxCell>
        <mxCell id="p5kdBDClQZR-n7pu-Rp3-91" value="" style="rounded=0;whiteSpace=wrap;html=1;align=left;" vertex="1" parent="1">
          <mxGeometry x="250" y="220" width="70" height="40" as="geometry" />
        </mxCell>
        <mxCell id="p5kdBDClQZR-n7pu-Rp3-92" value="Save" style="rounded=0;whiteSpace=wrap;html=1;align=left;spacingLeft=2;fillColor=#FFFFFF;" vertex="1" parent="1">
          <mxGeometry x="250" y="220" width="70" height="20" as="geometry" />
        </mxCell>
        <mxCell id="p5kdBDClQZR-n7pu-Rp3-93" value="Modify" style="rounded=0;whiteSpace=wrap;html=1;align=left;spacingLeft=2;fillColor=#FFFFFF;" vertex="1" parent="1">
          <mxGeometry x="250" y="240" width="70" height="20" as="geometry" />
        </mxCell>
        <mxCell id="p5kdBDClQZR-n7pu-Rp3-94" value="" style="html=1;verticalLabelPosition=bottom;align=center;labelBackgroundColor=#ffffff;verticalAlign=top;strokeWidth=2;strokeColor=#808080;shadow=0;dashed=0;shape=mxgraph.ios7.icons.link;" vertex="1" parent="1">
          <mxGeometry x="136" y="300" width="10" height="10" as="geometry" />
        </mxCell>
        <mxCell id="p5kdBDClQZR-n7pu-Rp3-95" value="" style="html=1;verticalLabelPosition=bottom;align=center;labelBackgroundColor=#ffffff;verticalAlign=top;strokeWidth=2;strokeColor=#808080;shadow=0;dashed=0;shape=mxgraph.ios7.icons.link;" vertex="1" parent="1">
          <mxGeometry x="123" y="340" width="10" height="10" as="geometry" />
        </mxCell>
        <mxCell id="p5kdBDClQZR-n7pu-Rp3-96" value="castle" style="shape=callout;whiteSpace=wrap;html=1;perimeter=calloutPerimeter;size=30;position=0.38;rounded=1;" vertex="1" parent="1">
          <mxGeometry x="320" y="160" width="80" height="80" as="geometry" />
        </mxCell>
      </root>
    </mxGraphModel>
  </diagram>
</mxfile>
